<?xml version="1.0" encoding="UTF-8"?>
<svg width="32px" height="32px" viewBox="0 0 32 32" version="1.1" xmlns="http://www.w3.org/2000/svg" xmlns:xlink="http://www.w3.org/1999/xlink">
    <!-- Generator: Sketch 49.1 (51147) - http://www.bohemiancoding.com/sketch -->
    <title>call-empty</title>
    <desc>Created with Sketch.</desc>
    <defs></defs>
    <g id="call-empty" stroke="none" stroke-width="1" fill="none" fill-rule="evenodd">
        <path d="M25.5242837,24.2386438 L22.4866754,21.0422403 C22.1875901,20.7290437 21.768277,20.5349817 21.3036929,20.5349817 C20.8695368,20.5349817 20.4739724,20.705067 20.1800821,20.9830477 L19.5017596,21.628922 C19.3310658,21.7937623 19.0995158,21.8949143 18.8449594,21.8949143 C18.757386,21.8949143 18.6720391,21.8829259 18.5918872,21.8604477 C16.7253871,21.2947457 15.1639095,20.1603447 14.0670161,18.6595486 L13.4258009,17.6053198 C12.624282,16.3817552 12.1470814,14.8802098 12.1470814,13.2662733 C12.1470814,13.0886953 12.1530186,12.9126159 12.1641508,12.738035 C12.2034846,12.2150417 12.5367086,11.7549874 13.0035192,11.5399457 L13.5200536,11.3106678 C14.1330671,11.0251943 14.5501538,10.4107895 14.5501538,9.69748057 C14.5501538,9.43748244 14.4944928,9.19097125 14.3950451,8.96843683 L12.6198291,4.98604477 C12.4261287,4.5649527 12.0780617,4.24426337 11.6505849,4.09440854 C11.4821175,4.03371734 11.3017758,4 11.1132704,4 C10.8460974,4 10.5937674,4.0666854 10.3726076,4.18507071 C9.8159972,4.42708626 9.33285941,4.7590147 8.92393633,5.16661984 C7.26820605,7.06153414 5.18648331,14.2590615 9.86201033,20.8474291 C10.7793042,22.1406762 15.2782002,28 21.4632545,28 L21.4729024,28 C22.2469619,28 22.9994991,27.9093378 23.7216083,27.7385033 C24.3212632,27.5556804 24.8949429,27.2185071 25.3662063,26.7719397 C25.752865,26.455746 26,25.9732134 26,25.4329868 C26,24.9691861 25.8189161,24.5488433 25.5235415,24.2393931 L25.5242837,24.2386438 Z M24.3687606,25.6375386 C24.0800653,25.9162686 23.7319983,26.1343074 23.3460818,26.2706753 C22.2091124,26.5246792 16.3691565,27.4125691 11.0902639,19.9745247 C6.68710484,13.7622928 9.03303196,7.33951484 10.0564529,6.16615154 C10.3384688,5.91139833 10.6657557,5.69935375 11.0227285,5.54350473 C11.0665151,5.5270207 11.0895217,5.52102651 11.1140126,5.51952796 C11.1177233,5.51952796 11.1206919,5.51877868 11.1236605,5.51877868 C11.1370191,5.51877868 11.1496356,5.52177578 11.16151,5.5270207 C11.1993595,5.53900908 11.2297875,5.56598295 11.2461148,5.60119884 L13.0250415,9.59557928 C13.0391423,9.62629952 13.0473059,9.66151541 13.0473059,9.69972839 C13.0473059,9.8008804 12.987192,9.8877962 12.9011029,9.92600918 L12.3905057,10.1597827 C11.419035,10.6048516 10.7384861,11.5421935 10.6590764,12.6473729 C10.6464599,12.8376885 10.6390384,13.0482345 10.6390384,13.2602791 C10.6390384,15.1724267 11.2023281,16.9519528 12.1700879,18.4385127 L12.7964601,19.4710125 C14.1108027,21.2850052 15.9572648,22.6351972 18.1020701,23.2953077 C18.3766645,23.3747307 18.6089566,23.4099466 18.8494123,23.4099466 C19.5054703,23.4099466 20.1021566,23.1499485 20.542992,22.7266086 L21.2213145,22.0807343 C21.2435789,22.0605039 21.274007,22.0477662 21.3066615,22.0477662 C21.3430267,22.0477662 21.3764233,22.063501 21.400172,22.088227 L24.4377803,25.2846305 C24.4748876,25.3235928 24.497152,25.376042 24.497152,25.4344853 C24.497152,25.4397303 24.497152,25.4457245 24.4964099,25.4509694 C24.4837934,25.5311417 24.4355538,25.5993257 24.3687606,25.6375386 L24.3687606,25.6375386 Z" id="Mask" fill="#1F2229" fill-rule="nonzero"></path>
    </g>
</svg>