<?xml version="1.0" encoding="UTF-8"?>
<svg width="32px" height="32px" viewBox="0 0 32 32" version="1.1" xmlns="http://www.w3.org/2000/svg" xmlns:xlink="http://www.w3.org/1999/xlink">
    <!-- Generator: Sketch 49.1 (51147) - http://www.bohemiancoding.com/sketch -->
    <title>check-mark</title>
    <desc>Created with Sketch.</desc>
    <defs>
        <path d="M22.2435216,0.313824135 L9.0212729,14.0679605 L1.76064187,6.51328201 C1.57744769,6.31915863 1.31878998,6.198417 1.03150819,6.198417 C0.744226391,6.198417 0.485568687,6.31915863 0.302894937,6.51276157 C0.115016806,6.70948715 0,6.97647186 0,7.26999892 C0,7.56352597 0.115537244,7.82999024 0.302894937,8.02671582 L8.28797571,16.3479996 C8.4711699,16.542123 8.73034804,16.663385 9.01762984,16.663385 C9.30491163,16.663385 9.56408978,16.5426434 9.74676353,16.34852 L23.7007481,1.8267375 C23.8860241,1.62949149 24,1.36302721 24,1.0700206 C24,0.777013987 23.8860241,0.510549713 23.7002277,0.312783259 C23.5175539,0.120221186 23.2588962,0 22.9721349,0 C22.6853735,0 22.4267158,0.120221186 22.2440421,0.313303697 L22.2435216,0.313824135 Z" id="path-1"></path>
    </defs>
    <g id="check-mark" stroke="none" stroke-width="1" fill="none" fill-rule="evenodd">
        <g transform="translate(4.000000, 7.000000)">
            <mask id="mask-2" fill="white">
                <use xlink:href="#path-1"></use>
            </mask>
            <use id="Mask" fill="#1F2229" fill-rule="nonzero" xlink:href="#path-1"></use>
        </g>
    </g>
</svg>