<?xml version="1.0" encoding="UTF-8"?>
<svg width="32px" height="32px" viewBox="0 0 32 32" version="1.1" xmlns="http://www.w3.org/2000/svg" xmlns:xlink="http://www.w3.org/1999/xlink">
    <!-- Generator: Sketch 49.1 (51147) - http://www.bohemiancoding.com/sketch -->
    <title>help-2</title>
    <desc>Created with Sketch.</desc>
    <defs>
        <path d="M12,0 C5.37225,0 0,5.37225 0,12 C0,18.62775 5.37225,24 12,24 C18.62775,24 24,18.62775 24,12 C23.99175,5.376 18.624,0.00825 12.00075,0 L12,0 Z M12,22.5 C6.201,22.5 1.5,17.799 1.5,12 C1.5,6.201 6.201,1.5 12,1.5 C17.799,1.5 22.5,6.201 22.5,12 C22.4925,17.796 17.796,22.4925 12.00075,22.5 L12,22.5 Z M12,5.1975 C9.60975,5.199 7.67175,7.13475 7.66725,9.52425 C7.66725,9.939 8.00325,10.275 8.41725,10.275 C8.83125,10.275 9.16725,9.939 9.16725,9.525 C9.1695,7.9605 10.437,6.693 12.0015,6.69 C12.8595,6.72825 13.60125,7.191 14.02575,7.872 C14.24175,8.20575 14.36625,8.60025 14.36625,9.02475 C14.36625,9.38025 14.2785,9.7155 14.12325,10.0095 C13.848,10.47 13.44075,10.84125 12.95325,11.07075 C11.92875,11.5005 11.23425,12.47925 11.23425,13.62 C11.23425,13.63575 11.23425,13.6515 11.235,13.66725 C11.25225,14.91 11.25225,15.42 11.25225,15.42 C11.25225,15.834 11.58825,16.17 12.00225,16.17 C12.41625,16.17 12.75225,15.834 12.75225,15.42 C12.75225,15.006 12.75225,14.91 12.735,13.65 C12.72525,12.975 12.9765,12.795 13.70325,12.3675 C14.45925,11.9865 15.06525,11.40225 15.462,10.686 C15.7215,10.188 15.86775,9.624 15.86775,9.02475 C15.86775,8.3085 15.6585,7.641 15.2985,7.08075 C14.60775,5.9745 13.39425,5.232 12.00525,5.1975 L12,5.1975 Z M12,17.04 C11.47575,17.04 11.05125,17.4645 11.05125,17.98875 C11.05125,18.513 11.47575,18.9375 12,18.9375 C12.52425,18.9375 12.94875,18.513 12.94875,17.98875 L12.94875,17.985 C12.94875,17.985 12.94875,17.985 12.94875,17.98425 C12.94875,17.463 12.52575,17.04 12.0045,17.04 L12,17.04 Z" id="path-1"></path>
    </defs>
    <g id="help-2" stroke="none" stroke-width="1" fill="none" fill-rule="evenodd">
        <g transform="translate(4.000000, 4.000000)">
            <mask id="mask-2" fill="white">
                <use xlink:href="#path-1"></use>
            </mask>
            <use id="Mask" fill="#1F2229" fill-rule="nonzero" xlink:href="#path-1"></use>
        </g>
    </g>
</svg>