<?xml version="1.0" encoding="UTF-8"?>
<svg width="32px" height="32px" viewBox="0 0 32 32" version="1.1" xmlns="http://www.w3.org/2000/svg" xmlns:xlink="http://www.w3.org/1999/xlink">
    <!-- Generator: Sketch 49.1 (51147) - http://www.bohemiancoding.com/sketch -->
    <title>internet</title>
    <desc>Created with Sketch.</desc>
    <defs></defs>
    <g id="internet" stroke="none" stroke-width="1" fill="none" fill-rule="evenodd">
        <path d="M16,4 C9.37225,4 4,9.37225 4,16 C4,22.62775 9.37225,28 16,28 C22.62775,28 28,22.62775 28,16 C27.99175,9.376 22.624,4.00825 16.00075,4 L16,4 Z M24.775,21.1435 C23.9665,20.58625 23.0395,20.104 22.054,19.741 C22.156,18.59725 22.264,17.311 22.264,16.00075 C22.264,14.6905 22.156,13.40425 21.94825,12.1525 C23.09575,11.87725 24.073,11.35825 24.96325,10.7245 C24.9595,10.72 24.99025,10.687 25.01725,10.65175 C25.95025,12.178 26.50225,14.026 26.50225,16.003 C26.50225,17.99725 25.9405,19.861 24.96775,21.4435 C24.94,21.29575 24.8665,21.21025 24.778,21.145 L24.775,21.1435 Z M16,26.5 C14.344,26.5 12.6085,24.304 11.764,20.7325 C13.03525,20.38375 14.49475,20.1835 16.0015,20.1835 C17.50825,20.1835 18.96775,20.38375 20.35525,20.7595 C19.39225,24.3055 17.656,26.5 16,26.5 Z M16,18.685 L15.99175,18.685 C14.38675,18.685 12.8305,18.8965 11.35075,19.29325 C11.3245,18.283 11.23825,17.1505 11.23825,15.99775 C11.23825,14.845 11.3245,13.7125 11.49175,12.60625 C12.8335,13.099 14.392,13.3105 16,13.3105 C17.608,13.3105 19.1665,13.099 20.64925,12.70225 C20.6755,13.7125 20.7625,14.84425 20.7625,15.997 C20.7625,17.14975 20.6755,18.2815 20.50825,19.38775 C19.17175,18.89725 17.6185,18.68725 16.01725,18.68725 L15.99925,18.68725 L16,18.685 Z M16,5.5 C17.656,5.5 19.3915,7.69675 20.236,11.2675 C18.96475,11.61625 17.50525,11.8165 15.9985,11.8165 C14.49175,11.8165 13.03225,11.61625 11.64475,11.2405 C12.6085,7.69375 14.344,5.5 16,5.5 Z M24.205,9.46525 C24.148,9.48325 24.0985,9.50725 24.052,9.53575 C23.36425,10.0255 22.57375,10.453 21.73225,10.77775 C21.26125,9.034 20.554,7.47625 19.59025,6.112 C21.469,6.847 23.0185,7.9855 24.1885,9.442 L24.205,9.46525 Z M12.385,6.15475 C11.449,7.47775 10.74175,9.03625 10.36075,10.71775 C9.43525,10.456 8.65075,10.033 7.93075,9.5245 C7.915,9.517 7.858,9.4915 7.79725,9.4735 C8.9785,7.99075 10.53025,6.84925 12.3115,6.17575 L12.385,6.15475 Z M6.985,10.64575 C7.018,10.69075 7.05475,10.72975 7.09525,10.76425 C7.9435,11.36725 8.9155,11.8825 9.952,12.26425 C9.85,13.40725 9.742,14.692 9.742,16.00225 C9.742,17.3125 9.85,18.59725 10.057,19.84825 C8.902,20.1265 7.91875,20.65 7.02325,21.2905 C7.03225,21.29125 7.006,21.31975 6.982,21.3505 C6.04975,19.82425 5.4985,17.97625 5.4985,16 C5.4985,14.0215 6.0505,12.17275 7.009,10.59775 L6.985,10.64575 Z M7.80325,22.54825 C7.855,22.528 7.89925,22.5055 7.94125,22.4785 C8.63275,21.98575 9.427,21.55675 10.273,21.2305 C10.74475,22.97425 11.452,24.532 12.415,25.89625 C10.537,25.1605 8.9875,24.02275 7.8175,22.567 L7.80325,22.54825 Z M19.61725,25.84825 C20.55325,24.52675 21.25975,22.96975 21.64075,21.28975 C22.52275,21.5335 23.26975,21.928 23.959,22.39975 C24.01225,22.4365 24.121,22.4785 24.238,22.49275 C23.05,23.99275 21.4855,25.147 19.687,25.82425 L19.61725,25.84825 Z" id="Mask" fill="#1F2229" fill-rule="nonzero"></path>
    </g>
</svg>