<?xml version="1.0" encoding="UTF-8"?>
<svg width="32px" height="32px" viewBox="0 0 32 32" version="1.1" xmlns="http://www.w3.org/2000/svg" xmlns:xlink="http://www.w3.org/1999/xlink">
    <!-- Generator: Sketch 49.1 (51147) - http://www.bohemiancoding.com/sketch -->
    <title>messages</title>
    <desc>Created with Sketch.</desc>
    <defs></defs>
    <g id="messages" stroke="none" stroke-width="1" fill="none" fill-rule="evenodd">
        <path d="M24.5502133,6.00062467 L7.44409922,6.00062467 C5.53941756,6.01249336 4,7.54168098 4,9.42630478 L4,9.43879814 L4,17.984883 L4,17.9936284 C4,19.7139645 5.28032019,21.1388325 6.95118226,21.3868257 L6.97014061,25.2535216 L6.97014061,25.2553956 C6.97014061,25.5414936 7.13255042,25.7894868 7.37142556,25.9144205 C7.47506451,25.9693913 7.59387014,26 7.71962715,26 C7.88266891,26 8.03307178,25.9481525 8.15566907,25.8600743 L14.3999157,21.4211825 L24.5508452,21.4211825 C26.4580547,21.4118125 28,19.8820002 28,17.9955024 L28,17.9836337 L28,9.4375488 L28,9.42630478 C28,7.53980698 26.4574227,6.00874535 24.5508452,6 L24.5502133,6.00062467 Z M26.499763,17.984883 L26.499763,17.9917544 C26.499763,19.0580629 25.6276792,19.9226036 24.5508452,19.927601 L14.1597767,19.927601 C13.996735,19.927601 13.8457001,19.9794484 13.7224709,20.0675266 L8.46658592,23.8030421 L8.46658592,20.6747041 L8.46658592,20.6690821 C8.46658592,20.2599244 8.13102322,19.927601 7.71646743,19.927601 L7.71646743,19.927601 L7.44283533,19.927601 C6.36473748,19.9226036 5.49328559,19.0574382 5.49328559,17.9917544 L5.49328559,17.984883 L5.49328559,9.43879814 L5.49328559,9.43192679 C5.49328559,8.36561827 6.36536942,7.50107755 7.44220338,7.49608021 L24.5483174,7.49608021 C25.6245195,7.50295156 26.4940755,8.36749227 26.4940755,9.43192679 L26.4940755,9.43879814 L26.4940755,17.984883 L26.499763,17.984883 Z M10.9431776,12.4503233 L10.9311707,12.4503233 C10.1981147,12.4503233 9.60408658,13.0375113 9.60408658,13.7621264 C9.60408658,14.4867414 10.1981147,15.0739295 10.9311707,15.0739295 C11.6642267,15.0739295 12.2582548,14.4867414 12.2582548,13.7621264 L12.2582548,13.7565044 C12.2582548,13.036262 11.6686503,12.4528219 10.9412818,12.4503233 L10.9431776,12.4503233 Z M15.9993681,12.4503233 L15.9867292,12.4503233 C15.2536732,12.4503233 14.6596451,13.0375113 14.6596451,13.7621264 C14.6596451,14.4867414 15.2536732,15.0739295 15.9867292,15.0739295 C16.7197851,15.0739295 17.3138133,14.4867414 17.3138133,13.7621264 L17.3138133,13.7565044 C17.3138133,13.0368867 16.7248407,12.4528219 15.9974722,12.4503233 L15.9993681,12.4503233 Z M21.0549265,12.4503233 L21.0429196,12.4503233 C20.3098636,12.4503233 19.7158355,13.0375113 19.7158355,13.7621264 C19.7158355,14.4867414 20.3098636,15.0739295 21.0429196,15.0739295 C21.7759756,15.0739295 22.3700037,14.4867414 22.3700037,13.7621264 L22.3700037,13.7565044 C22.3700037,13.036262 21.7803992,12.4528219 21.0530307,12.4503233 L21.0549265,12.4503233 Z" id="Mask" fill="#1F2229" fill-rule="nonzero"></path>
    </g>
</svg>