<?xml version="1.0" encoding="UTF-8"?>
<svg width="32px" height="32px" viewBox="0 0 32 32" version="1.1" xmlns="http://www.w3.org/2000/svg" xmlns:xlink="http://www.w3.org/1999/xlink">
    <!-- Generator: Sketch 49.1 (51147) - http://www.bohemiancoding.com/sketch -->
    <title>promised-payment</title>
    <desc>Created with Sketch.</desc>
    <defs></defs>
    <g id="promised-payment" stroke="none" stroke-width="1" fill="none" fill-rule="evenodd">
        <path d="M27.7816919,13.7570053 C27.6454147,13.6230298 27.4575374,13.5396235 27.2498139,13.5396235 C27.0420905,13.5396235 26.8548747,13.622373 26.717936,13.7570053 L25.1514099,15.3042907 C25.0409328,9.58997373 20.3486314,5 14.5766973,5 C8.73530141,5 4,9.70096322 4,15.5 C4,21.2990368 8.73530141,26 14.5766973,26 C18.2760275,26 21.5314645,24.1151489 23.4214835,21.2596322 C23.521376,21.1052977 23.5663607,20.9654116 23.5663607,20.8150175 C23.5663607,20.4032399 23.2302985,20.0696147 22.8155131,20.0696147 C22.5522203,20.0696147 22.3206814,20.2042469 22.1863888,20.4071804 C20.540478,22.892951 17.7467957,24.5091944 14.5733896,24.5091944 C9.55891838,24.5091944 5.49375672,20.4735114 5.49375672,15.4954028 C5.49375672,10.5172942 9.55891838,6.48161121 14.5733896,6.48161121 C19.5680146,6.48161121 23.6212685,10.4851138 23.6530224,15.436296 L21.9508807,13.757662 C21.8146035,13.6236865 21.6267262,13.5402802 21.4190027,13.5402802 C21.2112793,13.5402802 21.0240635,13.6230298 20.8871248,13.757662 C20.7515091,13.8916375 20.6674936,14.0774956 20.6674936,14.2823993 C20.6674936,14.487303 20.7515091,14.6731611 20.8871248,14.8071366 L23.8012073,17.6869527 C23.9374845,17.8209282 24.1253618,17.9043345 24.3330853,17.9043345 C24.5408087,17.9043345 24.7280245,17.8215849 24.8649632,17.6869527 L27.7797073,14.8071366 C27.9159845,14.6731611 28,14.487303 28,14.2817426 C28,14.0761821 27.9159845,13.8909807 27.7803688,13.7570053 L27.7816919,13.7570053 Z M14.5323741,9.00021891 L14.5270818,9.00021891 C14.1136194,9.00021891 13.7782188,9.33253065 13.7768957,9.74299475 L13.7768957,15.497373 C13.7775573,15.9078371 14.1129579,16.2401489 14.5270818,16.2401489 L14.5323741,16.2401489 L17.3617795,16.2401489 C17.7752419,16.2401489 18.109981,15.9078371 18.109981,15.497373 C18.109981,15.0869089 17.7752419,14.7545972 17.3617795,14.7545972 L15.2838832,14.7545972 L15.2838832,9.74365149 C15.2825602,9.33318739 14.9471595,9.00087566 14.5330356,9.00087566 L14.5317126,9.00087566 L14.5323741,9.00021891 Z" id="Mask" fill="#1F2229" fill-rule="nonzero"></path>
    </g>
</svg>