<?xml version="1.0" encoding="UTF-8"?>
<svg width="32px" height="32px" viewBox="0 0 32 32" version="1.1" xmlns="http://www.w3.org/2000/svg" xmlns:xlink="http://www.w3.org/1999/xlink">
    <!-- Generator: Sketch 49.1 (51147) - http://www.bohemiancoding.com/sketch -->
    <title>social-network</title>
    <desc>Created with Sketch.</desc>
    <defs>
        <path d="M21.9541931,11.7251282 C22.2405575,11.2936401 22.4688505,10.7602751 22.4688505,10.0465291 C22.4688505,9.1640625 22.0768822,7.33797583 19.4844955,7.25253724 C18.9059114,7.23380071 16.0572089,7.23155232 14.5740249,7.23155232 C14.7381569,5.69590607 14.892546,2.65534147 13.555507,1.05074478 C13.0196421,0.406957499 12.2177185,0 11.3206133,0 C11.2958811,0 11.2718983,0 11.2471661,0.000749461325 C8.20810043,0.000749461325 8.1796209,2.60812541 8.16837898,3.59141867 L8.16088436,4.13552759 C8.16912844,4.26368548 8.17437467,4.41282828 8.17437467,4.56347001 C8.17437467,5.86153702 7.81088593,7.0749149 7.17983949,8.10767261 C6.95575055,8.56259563 6.49108453,8.90509946 5.94172938,8.9703026 C5.30543672,8.33475939 4.43231427,7.94054273 3.46775755,7.94054273 C1.55288386,7.94054273 0.000749461325,9.49192768 0,11.4068014 L0,20.5352403 C0,22.4493645 1.55138494,24 3.46401024,24 C4.40158636,24 5.2514755,23.6275177 5.87502732,23.0234519 C6.34568904,22.9619961 6.89129688,22.9260219 7.44589826,22.9260219 C8.37073354,22.9260219 9.27233551,23.0257003 10.1409612,23.2138151 C11.0028417,23.369703 12.1375262,23.4986104 13.2909471,23.5578178 C13.7248852,23.5750554 14.1835556,23.5818006 14.7021828,23.5818006 C15.4801237,23.5818006 16.4042095,23.5660619 17.392749,23.5375824 C19.2049464,23.4836211 20.2871686,22.6172439 20.2871686,21.2165006 C20.2871686,20.7720701 20.2009805,20.3823502 20.0450926,20.0293539 C21.2389845,19.8712176 22.1458327,18.8804297 22.1900509,17.6693002 C22.1908004,17.092215 22.0439059,16.6095619 21.7898386,16.200356 C22.6539675,15.870593 23.2482903,15.0476845 23.2482903,14.0861256 C23.2482903,14.0464041 23.2475408,14.0059332 23.2452924,13.9662118 C23.2452924,13.0200408 22.6707764,12.0698547 21.9541931,11.7251282 Z M1.50716672,20.5352403 L1.50716672,11.4105487 C1.5289011,10.3440652 2.39827624,9.48743091 3.46850701,9.48743091 C4.53873778,9.48743091 5.40811292,10.3440652 5.4298473,11.4090497 L5.4298473,20.5389876 C5.40736346,21.6047216 4.53798832,22.4606064 3.46850701,22.4606064 C2.39752678,22.4606064 1.52740218,21.6032227 1.50716672,20.5374887 L1.50716672,20.5352403 Z M17.7157668,18.6923149 C16.3734816,18.7028074 15.0311963,18.6923149 15.0132093,18.6923149 C14.5875152,18.6923149 14.2502576,19.0295725 14.2502576,19.4455235 C14.2502576,19.8607251 14.5860163,20.1972332 15.0004684,20.1987322 C15.0506823,20.1987322 15.6262686,20.2039784 16.3817256,20.2039784 C16.7834369,20.2039784 17.2353621,20.2039784 17.6865378,20.1979827 C18.5978828,20.2324579 18.7807513,20.5974456 18.7807513,21.2142523 C18.7807513,21.4053649 18.7807513,21.9869469 17.3552759,22.0281673 C15.7364394,22.0768822 14.3019705,22.0843769 13.4206039,22.0536489 C12.2604378,21.9929426 11.1842113,21.8692815 10.1282203,21.683415 C9.30980858,21.5177841 8.18486713,21.4091122 7.03444399,21.4091122 C6.95799894,21.4091122 6.88155388,21.4098617 6.80510883,21.4106111 C6.8927958,21.1482997 6.93926241,20.8470162 6.94375917,20.5352403 L6.94375917,11.4090497 C6.93851294,11.0215782 6.8695625,10.6528433 6.74740031,10.3088405 C7.49985948,10.0592699 8.10167692,9.54364051 8.4779065,8.88261562 C9.23860975,7.64375605 9.68378978,6.16282047 9.68378978,4.57770977 C9.68378978,4.42856697 9.68004247,4.28017363 9.67179839,4.13327921 L9.68004247,3.6101552 C9.69653062,2.15769915 9.92661525,1.50941511 11.2554102,1.50941511 C11.2771446,1.50791619 11.3026262,1.50716672 11.3281079,1.50716672 C11.7590482,1.50716672 12.1435218,1.70427505 12.3968398,2.01380258 C13.4880555,3.32161259 13.1620398,6.66720794 12.9431971,7.85060738 C12.9357025,7.89107829 12.9312057,7.93829435 12.9312057,7.98625988 C12.9312057,8.40296037 13.2692128,8.74096743 13.6859132,8.74096743 C13.7353777,8.74096743 18.6923149,8.74096743 19.4387784,8.76045342 C20.7046186,8.80242326 20.9586859,9.28582581 20.9586859,10.0555226 C20.9586859,11.180464 19.5077288,11.2659026 19.3420979,11.2718983 C17.7967086,11.3228617 16.635793,11.3003779 16.6253006,11.3011273 C16.1943603,11.3011273 15.8563532,11.6383849 15.8563532,12.0550854 C15.8563532,12.4657902 16.1853668,12.80005 16.5945727,12.808294 C16.617806,12.808294 16.8756206,12.8127908 17.3028136,12.8127908 C17.662555,12.8127908 18.1467071,12.8127908 18.7073041,12.7963027 C18.7237923,12.80005 18.7432783,12.8022983 18.7635137,12.8045467 C18.7740062,12.8045467 19.5557443,12.7556628 20.2661837,12.7783156 C21.5805609,12.8202254 21.743372,13.3936233 21.743372,13.9789526 C21.743372,14.6002561 21.4323455,15.0237017 19.9116885,15.0746651 C19.8389907,15.0814102 15.9200575,15.0739156 15.8076383,15.0739156 C15.3916872,15.0739156 15.0544296,15.4111732 15.0544296,15.8271243 C15.0544296,16.2430753 15.3916872,16.5803329 15.8076383,16.5803329 C15.8353683,16.5803329 18.5311807,16.5803329 19.251413,16.5990694 C20.5772101,16.6380414 20.6881304,17.1499235 20.6881304,17.6707991 C20.6836336,18.6053774 19.2116916,18.6638354 19.1524842,18.6660838 C18.7335353,18.6803235 18.2283983,18.6878181 17.7157668,18.6923149 Z" id="path-1"></path>
    </defs>
    <g id="social-network" stroke="none" stroke-width="1" fill="none" fill-rule="evenodd">
        <g transform="translate(5.000000, 4.000000)">
            <mask id="mask-2" fill="white">
                <use xlink:href="#path-1"></use>
            </mask>
            <use id="Mask" fill="#1F2229" fill-rule="nonzero" xlink:href="#path-1"></use>
        </g>
    </g>
</svg>